<svg xmlns="http://www.w3.org/2000/svg" viewBox="0 0 402.2 92"><path d="M83 23c-.3-.5-.7-1-1-1.6l-.2-.4c-2-2.9-4.3-5.5-7-7.8-.2-.2-.4-.4-.7-.6C67.8 7.2 60 3.8 51.7 2.7h-.4c-.2 0-.4 0-.6-.1-.2 0-.5-.1-.7-.1h-.4c-.4 0-.7-.1-1.1-.1-.9 0-1.7-.1-2.6-.1C21.8 2.4 2.2 22 2.2 46.1c0 17.3 10 32.2 24.6 39.3.2.1.5.2.7.3 5.6 2.6 11.9 4.1 18.5 4.1h.1c6.6-2.5 11.4-8.9 11.4-16.4V23H83z" fill="#bddde8"/><path d="M50.2 89.7c5.5-3.1 9.3-8.9 9.5-15.6V27.5c0-1.2 1-2.2 2.2-2.2h22.6c3.4 6.2 5.3 13.3 5.3 20.8 0 22.8-17.4 41.5-39.6 43.6z" fill="#fbe0d3"/><path d="M46 0C20.6 0 0 20.6 0 46c0 20.8 13.8 38.4 32.8 44.1 3.2 1 6.5 1.6 10 1.8 1 .1 2.1.1 3.2.1 25.4 0 46-20.6 46-46S71.4 0 46 0zm0 89.8c-6.6 0-12.8-1.5-18.5-4.1-.2-.1-.5-.2-.7-.3-14.6-7.1-24.6-22-24.6-39.3C2.2 22 21.8 2.4 46 2.4c.9 0 1.7 0 2.6.1.4 0 .7.1 1.1.1h.4c.2 0 .5 0 .7.1.2 0 .4 0 .6.1h.4c8.3 1.1 16 4.5 22.4 9.9.2.2.4.4.7.6 2.6 2.3 5 4.9 7 7.8l.3.4c.3.5.7 1 1 1.6H57.4v50.5c0 7.3-4.7 13.7-11.4 16.2zm4.2-.1c5.5-3.1 9.3-8.9 9.5-15.6V27.5c0-1.2 1-2.2 2.2-2.2h22.6c3.4 6.2 5.3 13.3 5.3 20.8 0 22.8-17.4 41.5-39.6 43.6zM212 25.4c-.2-.3-.3-.7-.1-1 .1-.3.3-.6.6-.7.3-.2.6-.2 1-.2s.7.3.9.6c1.9 2.9 3.8 5.9 5.7 8.8 1.9 2.9 3.8 5.9 5.7 8.8 2.7 4.2 5.4 8.3 8.1 12.5l8.1 12.6c.3.3.3.7.2 1-.1.3-.3.6-.6.7-.3.2-.6.2-1 .2-.3 0-.6-.2-.9-.6l-11.4-17.6c-2.7-4.2-5.4-8.3-8.1-12.5-2.7-4.2-5.4-8.4-8.2-12.6zm2.4 42.7c-.2.3-.5.5-.9.6-.4 0-.7 0-1-.2-.3-.2-.5-.4-.6-.7-.1-.3-.1-.7.1-1 2-3 3.9-6 5.9-9 1.9-3 3.9-6 5.9-9.1.2-.3.5-.5.9-.6.4 0 .7 0 1 .2.3.2.5.4.6.7.1.3.1.7-.1 1-2 3-3.9 6-5.9 9-2 3-3.9 6.1-5.9 9.1zm16-24.6c-.3.3-.6.5-.9.6-.4 0-.7 0-1-.2-.3-.2-.5-.4-.6-.7-.1-.3-.1-.7.2-1 1.9-3 3.9-6 5.9-9 2-3 3.9-6 5.8-9 .3-.4.6-.6.9-.6.3 0 .7 0 1 .2.3.2.5.4.6.7.1.3.1.7-.2 1-1.9 3-3.9 6-5.8 9.1-2 2.9-4 5.9-5.9 8.9zm112.7 18.2c.3-.2.6-.3 1-.1.4.1.6.3.8.6.2.3.3.7.2 1-.1.3-.3.6-.6.8-2.5 1.9-5.4 3.3-8.5 4-3.1.8-6.3.8-9.4.2-2.4-.4-4.7-1.2-6.7-2.4-2.1-1.2-3.9-2.6-5.5-4.3-1.6-1.7-3-3.6-4-5.8-1.1-2.2-1.7-4.4-2-6.9-.3-2.4-.3-4.7.2-7.1.5-2.4 1.3-4.6 2.4-6.7 1.1-2.1 2.6-4 4.3-5.6 1.7-1.7 3.7-3 5.9-4s4.6-1.7 7-1.9c2.4-.3 4.8-.2 7.1.3s4.6 1.3 6.7 2.4c2.1 1.2 4 2.7 5.7 4.5 1.8 2 3.2 4.3 4.2 6.7 1 2.5 1.5 5 1.6 7.5.1 2.6-.2 5.1-1 7.7-.8 2.5-2 4.9-3.6 7-.2.3-.5.5-.8.6-.3.1-.7.1-1-.1-.3-.2-.5-.5-.6-.8-.1-.4-.1-.7.1-1 .9-1.1 1.6-2.3 2.2-3.4 1.2-2.3 1.8-4.7 2-7.2.2-2.5-.1-4.9-.7-7.3-.7-2.4-1.8-4.6-3.3-6.6-1.5-2-3.4-3.7-5.6-5-2.1-1.2-4.3-2-6.6-2.4-2.3-.4-4.7-.4-6.9-.1-2.3.4-4.4 1.1-6.5 2.3-2.1 1.1-3.9 2.6-5.5 4.5-1.5 1.8-2.7 3.8-3.5 6.1-.8 2.2-1.2 4.5-1.2 6.9 0 2.3.4 4.6 1.1 6.8.8 2.2 2 4.2 3.6 6 1.5 1.8 3.3 3.3 5.3 4.5 2 1.2 4.2 1.9 6.5 2.3 2.8.5 5.6.4 8.3-.3 2.6-.7 5.1-1.9 7.3-3.7zm59-37.3c-.1-.3-.3-.6-.6-.7-.3-.2-.6-.2-1-.2-.3 0-.6.3-.9.6-1.9 3-3.9 6-5.9 9-2 3-3.9 6-5.8 9-.3.3-.3.7-.2 1 .1.3.3.6.6.7.3.2.6.2 1 .2s.7-.2.9-.6c1.9-3 3.9-6 5.8-9 2-3 3.9-6 5.8-9.1.4-.2.4-.6.3-.9zm-13.9 21.7c0-.3-.1-.6-.3-.9l-13.8-21.1c-.2-.4-.5-.6-.9-.6s-.7 0-1 .2c-.3.2-.5.4-.6.7-.1.3-.1.7.1 1l13.7 21V66c0 .1-.1.2-.2.2h-.2c-.7 0-1.2.6-1.2 1.2 0 .7.5 1.2 1.2 1.2h.9c.2 0 .3 0 .5-.1.4-.2.7-.4 1-.6.6-.5.8-1.2.8-2.1V46.1zM187.9 23.8c-.3-.2-.6-.3-.9-.3-.3 0-.6.1-.9.3-.3.2-.4.5-.4 1v30.3c0 1.6-.3 3.2-.8 4.6-.6 1.4-1.5 2.7-2.7 3.8-.9.8-1.9 1.4-3 1.8-1.1.4-2.2.6-3.3.7-1.1 0-2.3-.1-3.4-.4-1.1-.3-2.2-.8-3.1-1.5-1.5-1-2.6-2.3-3.3-3.9-.7-1.6-1.1-3.3-1.1-5V26.4c0-.9-.3-1.5-.8-2.1-.3-.3-.6-.5-1-.6-.1-.1-.3-.1-.5-.1h-.9c-.7 0-1.2.6-1.2 1.2 0 .7.6 1.2 1.2 1.2h.2c.1 0 .2.1.2.2V55c0 1.7.2 3.3.7 4.8.5 1.5 1.3 2.9 2.4 4.3 1.6 1.9 3.6 3.3 6 4 2.4.7 4.8.8 7.1.2 2.4-.6 4.4-1.7 6.1-3.5 1.7-1.8 2.8-3.8 3.4-6.2.2-.9.3-1.8.3-2.8v-31c.1-.5 0-.8-.3-1zm-47.2 42.7c-.2-.3-.5-.4-1-.4h-22.1V26.4c0-.9-.3-1.5-.8-2.1-.3-.3-.6-.5-1-.6-.1-.1-.3-.1-.5-.1h-.9c-.7 0-1.2.6-1.2 1.2 0 .7.6 1.2 1.2 1.2h.2c.1 0 .2.1.2.2v41c0 .4.1.7.4 1 .3.3.6.4.9.4h23.5c.4 0 .8-.1 1-.4.2-.3.3-.6.3-.9.1-.2 0-.5-.2-.8zm140.1-42.9h-.8c-.2 0-.3 0-.5.1-.4.2-.7.4-1 .6-.6.5-.8 1.2-.8 2.1v29.2c0 .9 0 1.7-.1 2.5s-.3 1.6-.6 2.4c-.7 1.7-1.9 3-3.5 4-1.5 1-3.2 1.5-4.9 1.5h-.2c-.7 0-1.3.6-1.3 1.3 0 .7.6 1.3 1.3 1.3h.9c2.2-.2 4.1-.9 5.9-2.1 2-1.4 3.5-3.2 4.5-5.6.4-1 .7-2.1.7-3.1l.1-3.3V26.2c0-.1.1-.2.2-.2h.2c.7 0 1.2-.6 1.2-1.2s-.6-1.1-1.3-1.2z" fill="#70624e"/></svg>